<svg width="320" height="567" viewBox="0 0 320 567" fill="none" xmlns="http://www.w3.org/2000/svg">
<rect width="321" height="567" fill="white"/>
<path d="M281.079 189.886L280.774 189.798C278.425 191.087 277.883 194.689 279.568 197.877C281.217 200.973 284.371 202.568 286.727 201.477C280.791 197.539 286.475 192.367 281.079 189.886Z" fill="#C4C4C4" fill-opacity="0.3"/>
<path d="M274.423 465.361L272.584 465.505C262.373 477.076 266.682 497.324 282.296 510.895C297.53 524.053 317.948 526.202 328.595 515.668C288.286 506.646 308.854 467.724 274.423 465.361Z" fill="#C4C4C4" fill-opacity="0.3"/>
<path d="M309.237 222.233L309.278 221.227C303.509 214.958 291.949 216.016 283.359 223.628C275.024 231.059 272.478 241.998 277.64 248.437C285.329 227.145 305.645 240.759 309.237 222.233Z" fill="#C4C4C4" fill-opacity="0.3"/>
<path d="M308.126 326.217L308.681 326.255C312.226 323.18 311.818 316.81 307.75 311.974C303.778 307.281 297.784 305.715 294.154 308.454C305.781 313.004 297.963 323.962 308.126 326.217Z" fill="#C4C4C4" fill-opacity="0.3"/>
<path d="M312.632 149.135L312.762 148.659C310.69 145.038 305.053 144.288 300.121 146.99C295.331 149.634 292.922 154.582 294.685 158.218C300.679 148.884 308.897 157.593 312.632 149.135Z" fill="#C4C4C4" fill-opacity="0.3"/>
<path d="M271.947 388.62L271.806 389.567C276.161 396.191 286.303 396.569 294.547 390.389C302.551 384.348 305.897 374.297 302.086 367.584C293.202 386.824 276.988 371.51 271.947 388.62Z" fill="#C4C4C4" fill-opacity="0.3"/>
<path d="M299.049 411.5L298.737 411.629C297.648 414.26 299.602 417.609 303.127 419.133C306.561 420.606 310.242 419.832 311.468 417.36C303.917 418.04 305.182 409.97 299.049 411.5Z" fill="#C4C4C4" fill-opacity="0.3"/>
<path d="M287.167 201.02L287.481 201.135C289.828 199.847 290.368 196.243 288.686 193.058C287.039 189.96 283.882 188.366 281.526 189.458C287.315 192.48 282.057 197.875 287.167 201.02Z" fill="#C4C4C4" fill-opacity="0.3"/>
<path d="M330.071 512.357L332.017 512.337C342.216 500.775 337.896 480.522 322.3 466.958C307.072 453.79 286.645 451.647 276.002 462.185C313.659 466.634 295.864 505.889 330.071 512.357Z" fill="#C4C4C4" fill-opacity="0.3"/>
<path d="M279.388 249.448L279.27 250.505C285.035 256.766 296.599 255.703 305.184 248.101C313.524 240.673 316.068 229.729 310.903 223.291C305.936 243.434 285.252 231.303 279.388 249.448Z" fill="#C4C4C4" fill-opacity="0.3"/>
<path d="M293.571 309.399L292.99 309.319C289.449 312.392 289.86 318.763 293.922 323.597C297.892 328.293 303.889 329.857 307.518 327.117C296.484 324.081 303.489 312.897 293.571 309.399Z" fill="#C4C4C4" fill-opacity="0.3"/>
<path d="M295.41 158.89L295.239 159.382C297.309 162.999 302.948 163.747 307.877 161.049C312.67 158.407 315.078 153.457 313.313 149.821C308.745 158.902 300.188 150.861 295.41 158.89Z" fill="#C4C4C4" fill-opacity="0.3"/>
<path d="M300.676 366.419L300.888 365.433C296.536 358.817 286.391 358.443 278.152 364.615C270.143 370.652 266.799 380.709 270.612 387.42C277.015 368.943 293.703 382.897 300.676 366.419Z" fill="#C4C4C4" fill-opacity="0.3"/>
<path d="M311.529 416.688L311.866 416.575C312.954 413.946 310.997 410.597 307.476 409.073C304.043 407.598 300.36 408.374 299.135 410.846C305.953 409.504 305.191 417.477 311.529 416.688Z" fill="#C4C4C4" fill-opacity="0.3"/>
<path d="M280.943 272.588L280.844 272.247C278.21 270.794 274.461 272.441 272.441 275.949C270.487 279.367 270.863 283.312 273.313 284.889C273.496 276.905 281.821 279.188 280.943 272.588Z" fill="#C4C4C4" fill-opacity="0.3"/>
<path d="M274.011 285.032L274.09 285.399C276.721 286.849 280.471 285.2 282.49 281.696C284.447 278.278 284.07 274.332 281.619 272.756C282.218 280.051 273.936 278.306 274.011 285.032Z" fill="#C4C4C4" fill-opacity="0.3"/>
</svg>
