<svg width="162" height="162" viewBox="0 0 162 162" fill="none" xmlns="http://www.w3.org/2000/svg">
<path d="M50.208 98.0001V67.2559H50.0498L40.3467 73.9532V66.7813L50.1816 59.9522H58.0918V98.0001H50.208ZM76.1533 98.0001V67.2559H75.9951L66.292 73.9532V66.7813L76.127 59.9522H84.0371V98.0001H76.1533ZM110.721 98.0001V91.2237H91.7891V84.4473C94.8828 78.5411 99.9717 70.376 107.056 59.9522H118.288V84.8428H123.245V91.2237H118.288V98.0001H110.721ZM98.7764 84.8692V85.0801H110.879V65.5948H110.721C107.785 69.8839 105.43 73.461 103.654 76.3262C101.879 79.1739 100.253 82.0215 98.7764 84.8692Z" fill="black"/>
<path d="M62.7469 23.6903C75.6147 19.6097 89.4826 19.9877 102.109 24.7632C114.735 29.5387 125.382 38.4325 132.329 50.0072C139.276 61.5819 142.117 75.161 140.392 88.5496C138.667 101.938 132.478 114.354 122.824 123.79C113.171 133.226 100.617 139.131 87.1925 140.551C73.7681 141.97 60.2572 138.821 48.8437 131.613C37.4302 124.404 28.7812 113.557 24.2945 100.825C19.8078 88.0934 19.7457 74.2205 24.1182 61.449L32.5266 64.3277C28.8018 75.2075 28.8547 87.0254 32.6768 97.8714C36.4989 108.717 43.8668 117.958 53.5896 124.098C63.3125 130.239 74.8221 132.922 86.258 131.713C97.694 130.503 108.388 125.473 116.612 117.435C124.835 109.396 130.108 98.8195 131.577 87.4141C133.046 76.0086 130.627 64.4409 124.709 54.5808C118.791 44.7206 109.721 37.1442 98.9649 33.0761C88.2088 29.008 76.3951 28.6859 65.4334 32.162L62.7469 23.6903Z" fill="#F7C1D9"/>
<g clip-path="url(#clip0)">
<path d="M38.7307 15.0003L38.6777 15.0001C31.7405 15.0001 26.0967 21.1502 26.0967 28.71C26.0967 32.8546 28.0409 36.0872 30.2071 39.3063L38.661 51.8697C38.661 51.8697 46.6515 40.0492 47.1513 39.3066C49.3175 36.0875 51.2616 32.8548 51.2616 28.7103C51.2616 21.1691 45.6454 15.0302 38.7307 15.0003ZM45.5527 38.0292C45.0524 38.773 39.8028 46.6072 38.6863 48.2545L31.8056 38.0292C29.7667 34.9991 28.0791 32.2065 28.0791 28.71C28.0791 22.3592 32.8067 17.1891 38.6284 17.1601H38.6793C44.5242 17.1601 49.2795 22.3415 49.2795 28.7103C49.2795 32.2067 47.5917 34.9991 45.5527 38.0292Z" fill="black" fill-opacity="0.8"/>
<path d="M44.0512 22.0483C43.3115 30.3163 34.6032 26.7998 35.0868 33.776L35.1689 34.1431C37.8734 36.0141 41.9781 34.8188 44.3678 31.4548C46.6818 28.1729 46.551 24.024 44.0512 22.0483Z" fill="black" fill-opacity="0.8"/>
<path d="M42.2721 21.5409L42.2135 21.1494C39.5098 19.2802 35.4052 20.4764 33.0154 23.8377C30.6997 27.1196 30.8314 31.2694 33.333 33.2451C33.194 25.5842 41.8914 28.5369 42.2721 21.5409Z" fill="black" fill-opacity="0.8"/>
</g>
<defs>
<clipPath id="clip0">
<rect width="33.8636" height="39.2105" fill="white" transform="translate(22 15.0001)"/>
</clipPath>
</defs>
</svg>
