<svg width="26" height="26" viewBox="0 0 26 26" fill="none" xmlns="http://www.w3.org/2000/svg">
<path d="M13 26C20.1797 26 26 20.1797 26 13C26 5.8203 20.1797 0 13 0C5.8203 0 0 5.8203 0 13C0 20.1797 5.8203 26 13 26Z" fill="#3F65A6"/>
<path d="M11.0246 8.72423C11.0246 9.10001 11.0246 10.7758 11.0246 10.7758H9.52148V13.2844H11.0246V20.1602H14.1121V13.2793H16.184C16.184 13.2793 16.377 12.0758 16.4734 10.7606C16.2043 10.7606 14.1273 10.7606 14.1273 10.7606C14.1273 10.7606 14.1273 9.30314 14.1273 9.04415C14.1273 8.79025 14.4625 8.44494 14.7977 8.44494C15.1277 8.44494 15.8285 8.44494 16.4785 8.44494C16.4785 8.1047 16.4785 6.9215 16.4785 5.83478C15.6102 5.83478 14.625 5.83478 14.1934 5.83478C10.9484 5.83986 11.0246 8.34845 11.0246 8.72423Z" fill="white"/>
</svg>
