<svg width="162" height="162" viewBox="0 0 162 162" fill="none" xmlns="http://www.w3.org/2000/svg">
<path d="M48.6147 73.147C48.6147 69.5435 49.9155 66.5991 52.5171 64.314C55.1362 62.0112 58.52 60.8599 62.6685 60.8599C66.6587 60.8599 69.9106 61.897 72.4243 63.9712C74.938 66.0278 76.1948 68.6558 76.1948 71.855C76.1948 72.9976 76.019 74.105 75.6675 75.1772C75.3335 76.2319 74.7886 77.2954 74.0327 78.3677C73.2944 79.4224 72.5474 80.3804 71.7915 81.2417C71.0356 82.0854 70.0513 83.1138 68.8384 84.3267L59.5571 93.2651V93.4233H76.7222V99.7515H49.063V94.3989L63.4067 80.5825C65.3403 78.6489 66.6587 77.0933 67.3618 75.9155C68.0825 74.7378 68.4429 73.4897 68.4429 72.1714C68.4429 70.73 67.8716 69.5171 66.729 68.5327C65.5864 67.5483 64.145 67.0562 62.4048 67.0562C60.5591 67.0562 59.0298 67.6362 57.8169 68.7964C56.604 69.939 55.9976 71.3892 55.9976 73.147V73.2788H48.6147V73.147ZM96.2866 100.595C92.2085 100.595 88.8335 99.5054 86.1616 97.3257C83.5073 95.1284 82.1187 92.3071 81.9956 88.8618H89.3521C89.5806 90.479 90.3364 91.7886 91.6196 92.7905C92.9204 93.7925 94.4937 94.2935 96.3394 94.2935C98.4136 94.2935 100.101 93.6431 101.402 92.3423C102.72 91.0239 103.379 89.3276 103.379 87.2534C103.379 85.144 102.729 83.4214 101.428 82.0854C100.127 80.7495 98.4487 80.0815 96.3921 80.0815C94.9507 80.0815 93.6411 80.3979 92.4634 81.0308C91.3032 81.646 90.3892 82.4985 89.7212 83.5884H82.6021L84.4741 61.7036H108.679V68.0317H90.7231L89.853 78.4468H90.0112C90.8022 77.146 91.9272 76.1265 93.3862 75.3882C94.8628 74.6499 96.5591 74.2808 98.4751 74.2808C102.114 74.2808 105.102 75.4849 107.44 77.8931C109.795 80.2837 110.973 83.3335 110.973 87.0425C110.973 91.0679 109.611 94.3374 106.886 96.8511C104.179 99.3472 100.646 100.595 96.2866 100.595Z" fill="black"/>
<path d="M62.7742 44.6889L54.0277 33.8825C53.6112 33.3782 53.0281 33.0901 52.3617 33.018C51.6953 32.946 51.0289 33.0901 50.5291 33.4503L47.0306 35.8997C46.5308 36.2599 46.1976 36.7642 46.1143 37.3406C46.1143 37.5567 46.1143 37.7008 46.1143 37.9169C45.7811 37.9169 45.4479 37.989 45.1147 37.989C44.8648 37.989 44.6982 38.061 44.4483 38.061C43.1155 38.133 41.6994 38.4933 40.2 38.9976C39.8668 39.1416 39.5336 39.2857 39.2004 39.4298C37.701 38.7814 36.2849 38.3492 34.8688 38.133C33.8692 37.989 32.9529 37.9169 32.1199 38.061C32.2865 37.2685 31.9533 36.404 31.2036 35.8997L27.7051 33.4503C27.2053 33.0901 26.5389 32.946 25.8725 33.018C25.2061 33.0901 24.623 33.3782 24.2065 33.8825L15.46 44.6889C14.7103 45.6255 14.8769 46.9943 15.9598 47.7868L19.4584 50.2362C19.8749 50.5244 20.3747 50.6685 20.9578 50.6685C21.0411 50.6685 21.2077 50.6685 21.291 50.6685C21.7075 50.5964 22.0407 50.4523 22.3739 50.2362C22.6238 50.8846 23.0403 51.533 23.6234 52.1814C23.4568 52.9018 23.6234 53.6943 24.0399 54.2706C24.623 55.1351 25.6226 55.6394 26.7888 55.6394C27.122 55.6394 27.3719 55.5674 27.6218 55.5674C27.7051 55.9996 27.8717 56.3598 28.1216 56.7201C28.7047 57.5846 29.7043 58.0889 30.8704 58.0889C31.4535 58.0889 32.0366 57.9448 32.6197 57.6566C32.703 57.9448 32.8696 58.233 33.0362 58.5211C33.536 59.1695 34.2024 59.6738 35.0354 59.8179C35.4519 59.8899 35.8684 59.8899 36.2016 59.8179C36.2849 60.1781 36.4515 60.6104 36.7014 60.9706C37.2845 61.8351 38.2841 62.3394 39.4503 62.3394C40.1167 62.3394 40.6998 62.1953 41.1996 61.8351L43.532 60.4663C44.365 59.962 44.8648 59.1695 44.9481 58.305C45.5312 58.233 46.031 57.9448 46.4475 57.6566C46.864 57.3684 47.1139 56.9362 47.2805 56.576C47.5303 56.648 47.7803 56.7201 48.1134 56.7201C48.6965 56.7921 49.2796 56.648 49.7794 56.4319L50.4458 56.0717L50.779 55.8555L51.1122 55.4953C51.1122 55.4233 51.1955 55.4233 51.1955 55.3512C52.3617 56.3598 54.2776 56.3598 55.5271 55.4233C56.61 54.5588 56.9432 53.1179 56.3601 51.9652C56.4434 51.533 56.5267 51.1007 56.5267 50.6685C57.2764 50.9566 58.1927 50.8126 58.8591 50.3083L62.3577 47.8588C62.8575 47.4986 63.1907 46.9943 63.274 46.418C63.3573 45.6975 63.1907 45.1212 62.7742 44.6889ZM50.1126 39.9341C50.0293 39.8621 49.8627 39.6459 49.7794 39.5019C49.6128 39.2857 49.5295 39.1416 49.4462 39.0696L48.4466 37.7728C48.3633 37.6287 48.3633 37.4126 48.5299 37.3406L52.0285 34.8911C52.1118 34.8191 52.2784 34.8191 52.3617 34.9632L61.1082 45.7696C61.1915 45.8416 61.1915 45.9137 61.1915 45.9857C61.1915 46.0577 61.1082 46.1298 61.1082 46.2018L57.443 48.7233C57.3597 48.7233 57.3597 48.7954 57.2764 48.7954C57.2764 48.7954 57.1931 48.7954 57.1098 48.7233L52.2784 42.7438L50.1126 39.9341ZM47.8635 48.5072C47.7803 48.3631 47.7803 48.219 47.7803 48.0749C47.7803 47.7868 47.9468 47.5706 48.1134 47.3545C48.5299 46.9943 49.1963 47.0663 49.5295 47.4986L54.0277 52.4695C54.4442 52.9018 54.3609 53.5502 53.9444 53.9104C53.7778 54.0545 53.4446 54.1265 53.1947 54.1265C52.9448 54.1265 52.6949 53.9824 52.5283 53.7663L47.8635 48.5072ZM29.8709 37.7728L28.1216 39.9341C28.1216 39.9341 28.0383 40.0062 28.0383 40.0782L21.1244 48.6513C21.0411 48.7233 21.0411 48.7233 20.9578 48.7233C20.8745 48.7233 20.8745 48.7233 20.7912 48.7233L17.2926 46.2739C17.126 46.2018 17.126 45.9857 17.2093 45.8416L25.9558 35.0352C26.0391 34.9632 26.0391 34.9632 26.1224 34.9632C26.1224 34.9632 26.2057 34.9632 26.2057 35.0352L29.7043 37.4847C29.9542 37.4847 29.9542 37.6287 29.8709 37.7728ZM24.3731 47.9308L30.454 40.4384C32.4531 39.5739 34.7855 39.9341 36.7847 40.6545C36.2849 40.9427 35.8684 41.1588 35.7851 41.2309C34.369 42.0954 33.2861 43.104 32.7863 44.1126C32.2032 45.1212 32.1199 46.1298 32.6197 46.9223C33.1195 47.6427 34.0358 48.0749 35.1187 48.147C36.1183 48.219 37.2845 47.9309 38.534 47.3545L42.6157 45.1212C42.9489 44.9771 43.532 44.833 43.6986 44.9051C43.7819 44.9051 43.8652 45.1212 43.8652 45.1212C43.9485 45.3373 44.0318 45.8416 44.6149 46.3459C44.8648 46.562 45.2813 46.9223 45.8644 47.1384C45.8644 47.2104 45.7811 47.2825 45.7811 47.3545C44.8648 47.2104 43.8652 47.4266 43.1155 48.0029C42.699 48.2911 42.4491 48.7233 42.2825 49.0835C41.1996 48.7233 40.0334 48.9394 39.1171 49.5878C38.7006 49.1556 38.1175 48.8674 37.4511 48.7233C36.6181 48.5792 35.7851 48.7233 35.0354 49.1556L34.2024 49.6599C34.1191 49.2997 33.9525 48.9394 33.7859 48.6513C33.2861 48.0029 32.6197 47.4986 31.7867 47.3545C30.9537 47.2104 30.0375 47.3545 29.2878 47.7868L25.1228 50.3083C25.0395 50.3083 25.0395 50.3803 24.9562 50.3803C24.2898 49.4437 24.1232 48.6513 24.3731 47.9308ZM51.2788 46.2739C50.6124 45.6255 49.6961 45.1932 48.7798 45.1932C48.3633 45.1932 47.9468 45.2653 47.5303 45.4094C46.1976 45.2653 46.031 44.6889 46.031 44.6889V44.6169C45.7811 43.6803 45.1147 43.2481 44.6149 43.0319C43.2821 42.5276 41.6994 43.2481 41.5328 43.3201L37.5344 45.5534C36.7014 45.9857 35.8684 46.2018 35.2853 46.1298C34.9521 46.1298 34.7022 46.0577 34.6189 45.9137C34.5356 45.7696 34.5356 45.4094 34.7855 44.9051C35.202 44.1846 36.035 43.4642 37.1179 42.7438L37.2012 42.6717C37.6177 42.3836 39.1171 41.447 41.1163 40.7266C43.0322 40.0062 45.6978 39.4298 47.8635 40.3664L53.9444 47.8588C54.111 48.3631 54.2776 48.8674 54.2776 49.3717L51.2788 46.2739ZM25.9558 53.262C25.7892 53.0459 25.7059 52.7577 25.7892 52.4695C25.8725 52.1814 26.0391 51.9652 26.289 51.8212L30.454 49.2997C30.6206 49.2276 30.7871 49.1556 30.9537 49.1556C31.2869 49.1556 31.6201 49.2997 31.7867 49.5878C32.1199 50.0921 31.9533 50.7405 31.4535 51.0287L27.2886 53.5502C27.0387 53.6943 26.7888 53.6943 26.5389 53.6943C26.289 53.6222 26.1224 53.4781 25.9558 53.262ZM30.0375 55.7115C29.7043 55.2072 29.8709 54.5588 30.3707 54.2706L36.2849 50.7405C36.4515 50.6685 36.6181 50.5964 36.7847 50.5964C36.868 50.5964 36.9513 50.5964 36.9513 50.5964C37.2012 50.6685 37.4511 50.8126 37.6177 51.0287C37.9509 51.533 37.7843 52.1814 37.2845 52.4695L33.9525 54.4147C33.8692 54.4867 33.7859 54.5588 33.6193 54.6308L31.3702 55.9996C31.1203 56.1437 30.8704 56.1437 30.6205 56.1437C30.3707 56.0717 30.1208 55.9276 30.0375 55.7115ZM34.7022 56.648C34.7855 56.4319 34.8688 56.2878 35.0354 56.1437L37.701 54.5588C37.8676 54.4867 38.0342 54.4867 38.2841 54.5588C38.534 54.6308 38.7839 54.7749 38.9505 54.991C39.1171 55.2072 39.2004 55.4953 39.1171 55.7835C39.0338 55.9996 38.9505 56.1437 38.8672 56.2878L36.3682 57.8007C36.1183 57.9448 35.8684 57.9448 35.6185 57.9448C35.3686 57.8727 35.1187 57.7287 34.9521 57.5125C34.7022 57.2244 34.6189 56.9362 34.7022 56.648ZM38.534 59.8899C38.2841 59.4577 38.2841 58.9534 38.7006 58.5932L41.1996 57.0803C41.4495 56.9362 41.6994 56.9362 41.9493 56.9362C42.1992 57.0082 42.4491 57.1523 42.6157 57.3684C42.9489 57.8727 42.7823 58.5211 42.2825 58.8093L39.9501 60.2502C39.7002 60.3942 39.4503 60.3942 39.2004 60.3942C38.9505 60.3222 38.7006 60.1781 38.534 59.8899ZM42.7823 55.2072L40.2833 52.5416C40.1167 52.3255 40.0334 52.1093 40.0334 51.8932C40.0334 51.605 40.2 51.3169 40.4499 51.1007C40.6165 50.9566 40.8664 50.8846 41.1996 50.8846C41.4495 50.8846 41.6994 51.0287 41.866 51.2448L45.1147 54.7749C45.2813 54.991 45.3646 55.2792 45.3646 55.5674C45.3646 55.8555 45.198 56.0717 44.9481 56.2878C44.7815 56.4319 44.6149 56.5039 44.365 56.5039C44.0318 55.7835 43.4487 55.4233 42.7823 55.2072ZM44.5316 49.3717C44.6982 49.2276 44.9481 49.1556 45.198 49.1556C45.5312 49.1556 45.7811 49.2997 45.9477 49.5158L49.3629 53.4061C49.4462 53.5502 49.4462 53.6943 49.4462 53.8384C49.4462 54.1265 49.2796 54.3426 49.0297 54.5588C48.8631 54.7029 48.6132 54.7749 48.28 54.7749C48.0301 54.7749 47.7803 54.6308 47.6137 54.4147L44.365 50.8846C44.1984 50.6685 44.1151 50.3803 44.1151 50.0921C44.1984 49.804 44.365 49.5878 44.5316 49.3717Z" fill="black" fill-opacity="0.8"/>
<path d="M22.1238 45.3375C22.0405 45.0493 21.8739 44.617 21.624 44.3288C21.2908 44.0406 20.8743 43.7524 20.3745 43.7524C19.3749 43.7524 18.292 44.689 18.292 45.4815V45.5536C18.292 45.9859 18.6252 46.3461 18.9584 46.6343C19.2916 46.9225 19.7914 47.0666 20.2912 47.0666C20.791 47.0666 21.2908 46.9225 21.624 46.6343C21.8739 46.4181 22.1238 46.13 22.1238 45.7697V45.3375ZM19.8747 45.5536C19.8747 45.4095 19.958 45.3375 20.0413 45.2654C20.1246 45.1934 20.2912 45.1213 20.3745 45.1213C20.6244 45.1213 20.8743 45.3375 20.8743 45.5536C20.8743 45.7697 20.6244 45.9859 20.3745 45.9859C20.0413 45.9859 19.8747 45.7697 19.8747 45.5536Z" fill="black" fill-opacity="0.8"/>
<path d="M57.6932 47.4987C58.193 47.4987 58.6095 47.3546 58.9427 47.0664C59.1926 46.8503 59.3592 46.5621 59.4425 46.2019V45.7697C59.3592 45.4815 59.1926 45.1933 58.9427 44.9772C58.6095 44.689 58.193 44.5449 57.6932 44.5449C56.6936 44.5449 55.7773 45.1213 55.7773 45.9858V46.0578C55.7773 46.4901 56.0272 46.8503 56.3604 47.1385C56.6936 47.3546 57.1934 47.4987 57.6932 47.4987ZM57.6099 46.346C57.36 46.346 57.1101 46.1299 57.1101 45.9137C57.1101 45.7697 57.1934 45.6976 57.2767 45.6256C57.36 45.5535 57.5266 45.4815 57.6099 45.4815C57.8598 45.4815 58.1097 45.6976 58.1097 45.9137C58.1097 46.2019 57.9431 46.346 57.6099 46.346Z" fill="black" fill-opacity="0.8"/>
<path d="M62.7469 23.6903C75.6147 19.6097 89.4826 19.9877 102.109 24.7632C114.735 29.5387 125.382 38.4325 132.329 50.0072C139.276 61.5819 142.117 75.161 140.392 88.5496C138.667 101.938 132.478 114.354 122.824 123.79C113.171 133.226 100.617 139.131 87.1925 140.551C73.7681 141.97 60.2572 138.821 48.8437 131.613C37.4302 124.404 28.7812 113.557 24.2945 100.825C19.8078 88.0934 19.7457 74.2205 24.1182 61.449L32.5266 64.3277C28.8018 75.2075 28.8547 87.0254 32.6768 97.8714C36.4989 108.717 43.8668 117.958 53.5896 124.098C63.3125 130.239 74.8221 132.922 86.258 131.713C97.694 130.503 108.388 125.473 116.612 117.435C124.835 109.396 130.108 98.8195 131.577 87.4141C133.046 76.0086 130.627 64.4409 124.709 54.5808C118.791 44.7206 109.721 37.1442 98.9649 33.0761C88.2088 29.008 76.3951 28.6859 65.4334 32.162L62.7469 23.6903Z" fill="#F7C1D9"/>
</svg>
