<svg width="22" height="23" viewBox="0 0 22 23" fill="none" xmlns="http://www.w3.org/2000/svg">
<rect x="0.2" y="0.2" width="21.6" height="21.6" rx="4.8" fill="white" stroke="black" stroke-width="0.4"/>
<path d="M6.56885 9.48486V11.7656H7.98389C8.36475 11.7656 8.65918 11.666 8.86719 11.4668C9.07812 11.2676 9.18359 10.9863 9.18359 10.623C9.18359 10.2686 9.07373 9.99023 8.854 9.78809C8.63721 9.58594 8.33838 9.48486 7.95752 9.48486H6.56885ZM6.56885 12.561V15H5.58447V8.65869H8.07617C8.72656 8.65869 9.24219 8.83447 9.62305 9.18604C10.0039 9.53467 10.1943 10.0049 10.1943 10.5967C10.1943 11.0273 10.0845 11.4053 9.86475 11.7305C9.64795 12.0527 9.34766 12.2783 8.96387 12.4072L10.3877 15H9.24951L7.95752 12.561H6.56885ZM12.1323 8.65869V12.6885C12.1323 13.1514 12.2715 13.5249 12.5498 13.8091C12.8311 14.0903 13.2192 14.231 13.7144 14.231C14.2095 14.231 14.5977 14.0903 14.8789 13.8091C15.1602 13.5249 15.3008 13.1514 15.3008 12.6885V8.65869H16.2808V12.772C16.2808 13.4663 16.0493 14.0288 15.5864 14.4595C15.1235 14.8901 14.4995 15.1055 13.7144 15.1055C12.9292 15.1055 12.3052 14.8901 11.8423 14.4595C11.3794 14.0288 11.1479 13.4663 11.1479 12.772V8.65869H12.1323Z" fill="black"/>
</svg>
