<svg width="26" height="26" viewBox="0 0 26 26" fill="none" xmlns="http://www.w3.org/2000/svg">
<path d="M13 26C20.1797 26 26 20.1797 26 13C26 5.8203 20.1797 0 13 0C5.8203 0 0 5.8203 0 13C0 20.1797 5.8203 26 13 26Z" fill="#4D76A1"/>
<path fill-rule="evenodd" clip-rule="evenodd" d="M12.5089 18.7017H13.5293C13.5293 18.7017 13.8375 18.6678 13.9948 18.4982C14.1397 18.3425 14.135 18.05 14.135 18.05C14.135 18.05 14.1151 16.6809 14.7505 16.4793C15.3769 16.2807 16.1813 17.8025 17.0338 18.3877C17.6785 18.8305 18.1684 18.7334 18.1684 18.7334L20.448 18.7017C20.448 18.7017 21.6405 18.6282 21.0751 17.6906C21.0287 17.6139 20.7458 16.997 19.3802 15.7294C17.9508 14.4027 18.1422 14.6173 19.864 12.3224C20.9126 10.9248 21.3319 10.0716 21.2009 9.7061C21.076 9.35803 20.3048 9.45003 20.3048 9.45003L17.7381 9.46602C17.7381 9.46602 17.5478 9.44007 17.4067 9.52442C17.2688 9.60715 17.18 9.79995 17.18 9.79995C17.18 9.79995 16.7738 10.8815 16.232 11.8012C15.0891 13.742 14.6321 13.8445 14.4453 13.724C14.0108 13.4431 14.1193 12.5956 14.1193 11.9936C14.1193 10.1128 14.4045 9.3286 13.5638 9.1256C13.2848 9.05816 13.0795 9.01367 12.3659 9.00649C11.4501 8.99698 10.6749 9.00927 10.236 9.22432C9.94405 9.3673 9.7188 9.68594 9.85599 9.70425C10.0256 9.72696 10.4098 9.80783 10.6135 10.0852C10.8766 10.443 10.8673 11.2467 10.8673 11.2467C10.8673 11.2467 11.0184 13.4607 10.5144 13.7358C10.1684 13.9244 9.69377 13.5393 8.67482 11.7785C8.15272 10.8766 7.75853 9.87967 7.75853 9.87967C7.75853 9.87967 7.68252 9.69335 7.54696 9.59371C7.38242 9.47297 7.15254 9.4345 7.15254 9.4345L4.7135 9.45049C4.7135 9.45049 4.34736 9.46069 4.21295 9.61989C4.09338 9.76149 4.20345 10.0544 4.20345 10.0544C4.20345 10.0544 6.11297 14.5218 8.27508 16.7732C10.2576 18.8372 12.5089 18.7017 12.5089 18.7017Z" fill="white"/>
</svg>
