<svg width="26" height="26" viewBox="0 0 26 26" fill="none" xmlns="http://www.w3.org/2000/svg">
<circle cx="13" cy="13" r="13" fill="#ED1F24"/>
<path d="M16.1379 5.94287H14.015C11.929 5.94287 10.1601 7.50031 10.1601 10.524C10.1601 12.3379 11.0167 13.6754 12.5435 14.3351L9.69444 19.3926C9.6012 19.5577 9.69444 19.6857 9.84335 19.6857H11.1656C11.2773 19.6857 11.3521 19.6492 11.3893 19.5577L13.9778 14.5917H14.9089V19.5577C14.9089 19.6123 14.9645 19.6857 15.039 19.6857H16.1939C16.3055 19.6857 16.3428 19.6308 16.3428 19.5395V6.12611C16.3428 5.99784 16.2683 5.94287 16.1379 5.94287ZM14.9088 13.4192H14.1267C12.8977 13.4192 11.7059 12.5396 11.7059 10.3408C11.7059 8.04995 12.8232 7.11549 13.959 7.11549H14.9089V13.4192H14.9088Z" fill="white"/>
</svg>
